<?xml version="1.0" encoding="UTF-8" standalone="no"?>
<!DOCTYPE svg PUBLIC "-//W3C//DTD SVG 1.1 Tiny//EN" "http://www.w3.org/Graphics/SVG/1.1/DTD/svg11-tiny.dtd">
<svg xmlns="http://www.w3.org/2000/svg" xmlns:xlink="http://www.w3.org/1999/xlink" baseProfile="tiny" height="96px" version="1.1" viewBox="0 0 96 96" width="96px" x="0px" y="0px">
<g>
<rect fill="none" height="96" width="96"/>
</g>
<g>
<path d="M88.023,49c0,29.633-10.364,40-40,40c-29.635,0-40-10.367-40-40c0-29.634,10.366-40,40-40   C77.659,9,88.023,19.365,88.023,49z" fill-opacity="0.4" stroke-opacity="0.4"/>
</g>
<g>
<g>
<linearGradient gradientUnits="userSpaceOnUse" id="GRAY_5_1_" x1="47.9995" x2="47.9995" y1="8.0107" y2="87.9897">
<stop offset="0" style="stop-color:#DDDDDD"/>
<stop offset="0.0364" style="stop-color:#DDDDDD"/>
<stop offset="0.4616" style="stop-color:#BFBFC1"/>
<stop offset="1" style="stop-color:#949499"/>
</linearGradient>
<path d="M8,47.989c0,29.633,10.365,40,40,40    c29.637,0,40-10.367,40-40c0-28.985-9.926-39.53-38.091-39.979h-3.817C17.928,8.459,8,19.004,8,47.989z" fill="url(#GRAY_5_1_)" fill-rule="evenodd"/>
<linearGradient gradientUnits="userSpaceOnUse" id="HIGHLIGHT_GRA5_1_" x1="47.9995" x2="47.9995" y1="8" y2="88.0005">
<stop offset="0" style="stop-color:#FFFFFF"/>
<stop offset="0.0364" style="stop-color:#FFFFFF"/>
<stop offset="0.3366" style="stop-color:#E1E1E3"/>
<stop offset="0.9874" style="stop-color:#96969A"/>
<stop offset="1" style="stop-color:#949499"/>
</linearGradient>
<path d="M48,8C18.365,8,8,18.365,8,48    c0,29.633,10.365,40,40,40c29.637,0,40-10.367,40-40C88,18.365,77.637,8,48,8z M48,87.023C18.842,87.023,9,77.176,9,48    S18.842,8.977,48,8.977S87,18.824,87,48S77.158,87.023,48,87.023z" fill="url(#HIGHLIGHT_GRA5_1_)" fill-opacity="0.25" stroke-opacity="0.25"/>
</g>
<g display="none">
<linearGradient gradientUnits="userSpaceOnUse" id="GRAY_4_1_" x1="47.9995" x2="47.9995" y1="8.0107" y2="87.9897">
<stop offset="0" style="stop-color:#E0E0E0"/>
<stop offset="0.0364" style="stop-color:#E0E0E0"/>
<stop offset="0.3262" style="stop-color:#D6D6D6"/>
<stop offset="0.8148" style="stop-color:#BCBCBC"/>
<stop offset="1" style="stop-color:#B0B0B0"/>
</linearGradient>
<path d="M8,47.989    c0,29.633,10.365,40,40,40c29.637,0,40-10.367,40-40c0-28.985-9.926-39.53-38.091-39.979h-3.817C17.928,8.459,8,19.004,8,47.989z" display="inline" fill="url(#GRAY_4_1_)" fill-rule="evenodd"/>
<linearGradient gradientUnits="userSpaceOnUse" id="HIGHLIGHT_GRA4_2_" x1="47.9995" x2="47.9995" y1="8" y2="88.0005">
<stop offset="0" style="stop-color:#E8E8E8"/>
<stop offset="0.0364" style="stop-color:#E8E8E8"/>
<stop offset="0.2978" style="stop-color:#DEDEDE"/>
<stop offset="0.7385" style="stop-color:#C4C4C4"/>
<stop offset="1" style="stop-color:#B1B1B1"/>
</linearGradient>
<path d="M48,8C18.365,8,8,18.365,8,48    c0,29.633,10.365,40,40,40c29.637,0,40-10.367,40-40C88,18.365,77.637,8,48,8z M48,87.023C18.842,87.023,9,77.176,9,48    S18.842,8.977,48,8.977S87,18.824,87,48S77.158,87.023,48,87.023z" display="inline" fill="url(#HIGHLIGHT_GRA4_2_)"/>
</g>
<g display="none">
<linearGradient gradientUnits="userSpaceOnUse" id="GRAY_3_1_" x1="47.9995" x2="47.9995" y1="8.0107" y2="87.9897">
<stop offset="0" style="stop-color:#E9E9E9"/>
<stop offset="0.0364" style="stop-color:#E9E9E9"/>
<stop offset="0.3218" style="stop-color:#DFDFDF"/>
<stop offset="0.8028" style="stop-color:#C5C5C5"/>
<stop offset="1" style="stop-color:#B8B8B8"/>
</linearGradient>
<path d="M8,47.989    c0,29.633,10.365,40,40,40c29.637,0,40-10.367,40-40c0-28.985-9.926-39.53-38.091-39.979h-3.817C17.928,8.459,8,19.004,8,47.989z" display="inline" fill="url(#GRAY_3_1_)" fill-rule="evenodd"/>
<linearGradient gradientUnits="userSpaceOnUse" id="HIGHLIGHT_GRA3_2_" x1="47.9995" x2="47.9995" y1="8" y2="88.0005">
<stop offset="0" style="stop-color:#EFEFEF"/>
<stop offset="0.0364" style="stop-color:#EFEFEF"/>
<stop offset="0.3133" style="stop-color:#E5E5E5"/>
<stop offset="0.7799" style="stop-color:#CBCBCB"/>
<stop offset="1" style="stop-color:#BCBCBC"/>
</linearGradient>
<path d="M48,8C18.365,8,8,18.365,8,48    c0,29.633,10.365,40,40,40c29.637,0,40-10.367,40-40C88,18.365,77.637,8,48,8z M48,87.023C18.842,87.023,9,77.176,9,48    S18.842,8.977,48,8.977S87,18.824,87,48S77.158,87.023,48,87.023z" display="inline" fill="url(#HIGHLIGHT_GRA3_2_)"/>
</g>
<g display="none">
<linearGradient gradientUnits="userSpaceOnUse" id="GRAY_2_1_" x1="47.9995" x2="47.9995" y1="8.0107" y2="87.9897">
<stop offset="0" style="stop-color:#EEEEEE"/>
<stop offset="0.0364" style="stop-color:#EEEEEE"/>
<stop offset="0.3262" style="stop-color:#E4E4E4"/>
<stop offset="0.8148" style="stop-color:#CACACA"/>
<stop offset="1" style="stop-color:#BEBEBE"/>
</linearGradient>
<path d="M8,47.989    c0,29.633,10.365,40,40,40c29.637,0,40-10.367,40-40c0-28.985-9.926-39.53-38.091-39.979h-3.817C17.928,8.459,8,19.004,8,47.989z" display="inline" fill="url(#GRAY_2_1_)" fill-rule="evenodd"/>
<linearGradient gradientUnits="userSpaceOnUse" id="HIGHLIGHT_GRA2_1_" x1="47.9995" x2="47.9995" y1="8" y2="88.0005">
<stop offset="0" style="stop-color:#F2F2F2"/>
<stop offset="0.0364" style="stop-color:#F2F2F2"/>
<stop offset="0.3133" style="stop-color:#E8E8E8"/>
<stop offset="0.7799" style="stop-color:#CECECE"/>
<stop offset="1" style="stop-color:#BFBFBF"/>
</linearGradient>
<path d="M48,8C18.365,8,8,18.365,8,48    c0,29.633,10.365,40,40,40c29.637,0,40-10.367,40-40C88,18.365,77.637,8,48,8z M48,87.023C18.842,87.023,9,77.176,9,48    S18.842,8.977,48,8.977S87,18.824,87,48S77.158,87.023,48,87.023z" display="inline" fill="url(#HIGHLIGHT_GRA2_1_)"/>
</g>
<g display="none">
<linearGradient gradientUnits="userSpaceOnUse" id="GRAY_1_1_" x1="47.9995" x2="47.9995" y1="8.0107" y2="87.9897">
<stop offset="0" style="stop-color:#F9F9F9"/>
<stop offset="0.0364" style="stop-color:#F9F9F9"/>
<stop offset="0.2102" style="stop-color:#EFEFEF"/>
<stop offset="0.5042" style="stop-color:#D6D6D5"/>
<stop offset="0.8303" style="stop-color:#B2B2B0"/>
<stop offset="1" style="stop-color:#ABABA8"/>
</linearGradient>
<path d="M8,47.989    c0,29.633,10.365,40,40,40c29.637,0,40-10.367,40-40c0-28.985-9.926-39.53-38.091-39.979h-3.817C17.928,8.459,8,19.004,8,47.989z" display="inline" fill="url(#GRAY_1_1_)" fill-rule="evenodd"/>
<linearGradient gradientUnits="userSpaceOnUse" id="HIGHLIGHT_GRA1_1_" x1="47.9995" x2="47.9995" y1="8" y2="88.0005">
<stop offset="0" style="stop-color:#FCFCFC"/>
<stop offset="0.0364" style="stop-color:#FCFCFC"/>
<stop offset="0.2262" style="stop-color:#F3F3F2"/>
<stop offset="0.5471" style="stop-color:#DAD9D8"/>
<stop offset="0.9576" style="stop-color:#B2B0AD"/>
<stop offset="1" style="stop-color:#ADABA8"/>
</linearGradient>
<path d="M48,8C18.365,8,8,18.365,8,48    c0,29.633,10.365,40,40,40c29.637,0,40-10.367,40-40C88,18.365,77.637,8,48,8z M48,87.023C18.842,87.023,9,77.176,9,48    S18.842,8.977,48,8.977S87,18.824,87,48S77.158,87.023,48,87.023z" display="inline" fill="url(#HIGHLIGHT_GRA1_1_)"/>
</g>
</g>
<g>
<linearGradient gradientUnits="userSpaceOnUse" id="VIOLET_1_1_" x1="47.9995" x2="47.9995" y1="9.7622" y2="89.7412">
<stop offset="0" style="stop-color:#7CC040"/>
<stop offset="0.0364" style="stop-color:#7CC040"/>
<stop offset="0.2088" style="stop-color:#77B83D"/>
<stop offset="0.4751" style="stop-color:#69A236"/>
<stop offset="0.8004" style="stop-color:#527F2B"/>
<stop offset="1" style="stop-color:#426623"/>
</linearGradient>
<path d="M8,47.989c0,29.633,10.365,40,40,40c29.637,0,40-10.367,40-40   c0-28.985-9.926-39.53-38.091-39.979h-3.817C17.928,8.459,8,19.004,8,47.989z" fill="url(#VIOLET_1_1_)"/>
<linearGradient gradientUnits="userSpaceOnUse" id="HIGHLIGHT_VIO1_2_" x1="47.9995" x2="47.9995" y1="8.2554" y2="87.5043">
<stop offset="0" style="stop-color:#FFFFFF"/>
<stop offset="0.0364" style="stop-color:#FFFFFF"/>
<stop offset="1" style="stop-color:#4A1F8C"/>
</linearGradient>
<path d="M48,8C18.365,8,8,18.365,8,48   c0,29.632,10.365,40,40,40c29.637,0,40-10.367,40-40C88,18.365,77.637,8,48,8z M48,87.023C18.842,87.023,9,77.176,9,48   C9,18.824,18.842,8.977,48,8.977S87,18.824,87,48C87,77.176,77.158,87.023,48,87.023z" fill="url(#HIGHLIGHT_VIO1_2_)" fill-opacity="0.25" stroke-opacity="0.25"/>
<path d="M48.917,87.979c28.807-0.216,38.997-10.591,39.079-39.641C86.351,69.224,69.744,86.039,48.917,87.979z" fill-opacity="0.05" stroke-opacity="0.05"/>
<path d="M53.815,87.835c23.416-1.267,32.839-10.767,34.046-34.28C84.415,70.685,70.918,84.272,53.815,87.835z" fill-opacity="0.07" stroke-opacity="0.07"/>
<path d="M57.172,87.584c19.85-1.884,28.591-10.675,30.438-30.581C83.435,71.7,71.851,83.34,57.172,87.584z" fill-opacity="0.1" stroke-opacity="0.1"/>
<linearGradient gradientUnits="userSpaceOnUse" id="SVGID_1_" x1="68.1074" x2="68.1074" y1="48.6113" y2="88.8687">
<stop offset="0" style="stop-color:#3FA9F5"/>
<stop offset="0.0364" style="stop-color:#3FA9F5"/>
<stop offset="0.2062" style="stop-color:#3DA4ED"/>
<stop offset="0.4684" style="stop-color:#3898D7"/>
<stop offset="0.7886" style="stop-color:#3084B4"/>
<stop offset="1" style="stop-color:#297499"/>
</linearGradient>
<path d="M87.997,47.729h-0.044c0.001,0.091,0.007,0.18,0.007,0.271c0,21.996-17.776,39.838-39.745,39.954   v0.032C77.684,87.936,88,77.549,88,47.989C88,47.901,87.997,47.817,87.997,47.729z" fill="url(#SVGID_1_)"/>
</g>
<g>
<path d="M70.749,19.597c-0.254-0.114-0.639-0.285-3.063-0.285H28.314c-2.421,0-3.669,0.215-4.215,1.435   c-0.113,0.254-0.285,0.639-0.285,3.065v48.377c0,2.42,0.216,3.669,1.449,4.222c0.254,0.111,0.638,0.278,3.051,0.278h39.371   c2.421,0,3.67-0.217,4.222-1.45c0.111-0.254,0.278-0.638,0.278-3.05V23.812C72.186,21.391,71.971,20.143,70.749,19.597z    M40.473,52.103v3.779h-8.957l0.001-3.779H40.473z M40.473,64.183v5.057h-8.994l0.001-5.057H40.473z M31.44,44.149v-4.83h9.032   v4.83H31.44z M31.516,27.013h33.119v4.605H31.516V27.013z M64.635,52.103v3.705H48.137l0.001-3.705H64.635z M48.137,44.112v-4.792   h16.498v4.792H48.137z M64.672,64.147v5.092H48.137l0.001-5.092H64.672z" fill-opacity="0.05" stroke-opacity="0.05"/>
<path d="M70.546,20.053c-0.189-0.084-0.544-0.242-2.86-0.242H28.314c-2.49,0-3.368,0.266-3.758,1.139   c-0.085,0.19-0.242,0.543-0.242,2.861v48.377c0,2.489,0.267,3.368,1.149,3.764c0.19,0.083,0.544,0.236,2.851,0.236h39.371   c2.489,0,3.368-0.267,3.764-1.15c0.083-0.19,0.236-0.546,0.236-2.85V23.812C71.686,21.322,71.42,20.444,70.546,20.053z    M65.135,55.808c0,0.275-0.225,0.5-0.5,0.5H48.137c-0.276,0-0.5-0.225-0.5-0.5v-3.705c0-0.275,0.224-0.5,0.5-0.5h16.498   c0.275,0,0.5,0.225,0.5,0.5V55.808z M65.135,44.112c0,0.276-0.225,0.5-0.5,0.5H48.137c-0.276,0-0.5-0.224-0.5-0.5v-4.792   c0-0.276,0.224-0.5,0.5-0.5h16.498c0.275,0,0.5,0.224,0.5,0.5V44.112z M47.637,64.147c0-0.275,0.224-0.5,0.5-0.5h16.535   c0.275,0,0.5,0.225,0.5,0.5v5.092c0,0.275-0.225,0.5-0.5,0.5H48.137c-0.276,0-0.5-0.225-0.5-0.5V64.147z M65.135,31.618   c0,0.276-0.225,0.5-0.5,0.5H31.516c-0.276,0-0.5-0.224-0.5-0.5v-4.605c0-0.276,0.224-0.5,0.5-0.5h33.119c0.275,0,0.5,0.224,0.5,0.5   V31.618z M30.94,39.319c0-0.276,0.224-0.5,0.5-0.5h9.032c0.276,0,0.5,0.224,0.5,0.5v4.83c0,0.276-0.224,0.5-0.5,0.5H31.44   c-0.276,0-0.5-0.224-0.5-0.5V39.319z M30.979,64.183c0-0.275,0.224-0.5,0.5-0.5h8.994c0.276,0,0.5,0.225,0.5,0.5v5.057   c0,0.275-0.224,0.5-0.5,0.5h-8.994c-0.276,0-0.5-0.225-0.5-0.5V64.183z M40.973,55.882c0,0.275-0.224,0.5-0.5,0.5h-8.957   c-0.276,0-0.5-0.225-0.5-0.5v-3.779c0-0.275,0.224-0.5,0.5-0.5h8.957c0.276,0,0.5,0.225,0.5,0.5V55.882z" fill-opacity="0.07" stroke-opacity="0.07"/>
<path d="M70.344,20.51c-0.122-0.054-0.444-0.199-2.658-0.199H28.314c-2.473,0-3.052,0.283-3.302,0.842   c-0.054,0.122-0.198,0.445-0.198,2.658v48.377c0,2.473,0.284,3.052,0.848,3.305c0.121,0.053,0.444,0.195,2.652,0.195h39.371   c2.473,0,3.052-0.284,3.305-0.848c0.053-0.122,0.195-0.445,0.195-2.652V23.812C71.186,21.339,70.902,20.76,70.344,20.51z    M65.635,55.808c0,0.552-0.448,1-1,1H48.137c-0.552,0-1-0.448-1-1v-3.705c0-0.552,0.448-1,1-1h16.498c0.552,0,1,0.448,1,1V55.808z    M65.635,44.112c0,0.551-0.448,1-1,1H48.137c-0.552,0-1-0.449-1-1v-4.792c0-0.551,0.448-1,1-1h16.498c0.552,0,1,0.449,1,1V44.112z    M47.137,64.147c0-0.552,0.448-1,1-1h16.535c0.552,0,1,0.448,1,1v5.092c0,0.552-0.448,1-1,1H48.137c-0.552,0-1-0.448-1-1V64.147z    M65.635,31.618c0,0.551-0.448,1-1,1H31.516c-0.552,0-1-0.449-1-1v-4.605c0-0.551,0.448-1,1-1h33.119c0.552,0,1,0.449,1,1V31.618z    M30.44,39.319c0-0.551,0.448-1,1-1h9.032c0.552,0,1,0.449,1,1v4.83c0,0.551-0.448,1-1,1H31.44c-0.552,0-1-0.449-1-1V39.319z    M30.479,64.183c0-0.552,0.448-1,1-1h8.994c0.552,0,1,0.448,1,1v5.057c0,0.552-0.448,1-1,1h-8.994c-0.552,0-1-0.448-1-1V64.183z    M41.473,55.882c0,0.552-0.448,1-1,1h-8.957c-0.552,0-1-0.448-1-1v-3.779c0-0.552,0.448-1,1-1h8.957c0.552,0,1,0.448,1,1V55.882z" fill-opacity="0.1" stroke-opacity="0.1"/>
<path d="M70.14,20.967c-0.313-0.14-1.82-0.155-2.454-0.155H28.314c-2.601,0-2.754,0.342-2.845,0.546   c-0.141,0.314-0.155,1.821-0.155,2.454v48.377c0,2.602,0.342,2.754,0.549,2.847c0.315,0.139,1.819,0.153,2.451,0.153h39.371   c2.602,0,2.754-0.342,2.847-0.549c0.139-0.315,0.153-1.819,0.153-2.451V23.812C70.686,21.211,70.344,21.058,70.14,20.967z    M64.635,57.308H48.137c-0.827,0-1.5-0.673-1.5-1.5v-3.705c0-0.827,0.673-1.5,1.5-1.5h16.498c0.827,0,1.5,0.673,1.5,1.5v3.705   C66.135,56.635,65.462,57.308,64.635,57.308z M64.635,45.612H48.137c-0.827,0-1.5-0.673-1.5-1.5v-4.792c0-0.827,0.673-1.5,1.5-1.5   h16.498c0.827,0,1.5,0.673,1.5,1.5v4.792C66.135,44.939,65.462,45.612,64.635,45.612z M46.637,64.147c0-0.827,0.673-1.5,1.5-1.5   h16.535c0.827,0,1.5,0.673,1.5,1.5v5.092c0,0.827-0.673,1.5-1.5,1.5H48.137c-0.827,0-1.5-0.673-1.5-1.5V64.147z M66.135,31.618   c0,0.827-0.673,1.5-1.5,1.5H31.516c-0.827,0-1.5-0.673-1.5-1.5v-4.605c0-0.827,0.673-1.5,1.5-1.5h33.119c0.827,0,1.5,0.673,1.5,1.5   V31.618z M31.44,37.819h9.032c0.827,0,1.5,0.673,1.5,1.5v4.83c0,0.827-0.673,1.5-1.5,1.5H31.44c-0.827,0-1.5-0.673-1.5-1.5v-4.83   C29.94,38.492,30.613,37.819,31.44,37.819z M29.979,64.183c0-0.827,0.673-1.5,1.5-1.5h8.994c0.827,0,1.5,0.673,1.5,1.5v5.057   c0,0.827-0.673,1.5-1.5,1.5h-8.994c-0.827,0-1.5-0.673-1.5-1.5V64.183z M40.473,57.382h-8.957c-0.827,0-1.5-0.673-1.5-1.5v-3.779   c0-0.827,0.673-1.5,1.5-1.5h8.957c0.827,0,1.5,0.673,1.5,1.5v3.779C41.973,56.709,41.3,57.382,40.473,57.382z" fill-opacity="0.15" stroke-opacity="0.15"/>
<path d="M69.936,21.423c-0.138-0.062-1.15-0.112-2.25-0.112H28.314c-1.101,0-2.327,0.112-2.389,0.25   s-0.111,1.15-0.111,2.25v48.377c0,1.1,0.112,2.327,0.25,2.389c0.138,0.061,1.149,0.111,2.25,0.111h39.371   c1.1,0,2.327-0.112,2.389-0.25c0.061-0.138,0.111-1.15,0.111-2.25V23.812C70.186,22.711,70.073,21.485,69.936,21.423z    M64.635,57.808H48.137c-1.101,0-2-0.9-2-2v-3.705c0-1.1,0.899-2,2-2h16.498c1.1,0,2,0.9,2,2v3.705   C66.635,56.907,65.734,57.808,64.635,57.808z M64.635,46.112H48.137c-1.101,0-2-0.9-2-2v-4.792c0-1.1,0.899-2,2-2h16.498   c1.1,0,2,0.9,2,2v4.792C66.635,45.212,65.734,46.112,64.635,46.112z M46.137,64.147c0-1.1,0.899-2,2-2h16.535c1.1,0,2,0.9,2,2   v5.092c0,1.1-0.9,2-2,2H48.137c-1.101,0-2-0.9-2-2V64.147z M66.635,31.618c0,1.1-0.9,2-2,2H31.516c-1.101,0-2-0.9-2-2v-4.605   c0-1.1,0.899-2,2-2h33.119c1.1,0,2,0.9,2,2V31.618z M31.44,37.319h9.032c1.101,0,2,0.9,2,2v4.83c0,1.1-0.899,2-2,2H31.44   c-1.101,0-2-0.9-2-2v-4.83C29.44,38.219,30.34,37.319,31.44,37.319z M29.479,64.183c0-1.1,0.899-2,2-2h8.994c1.101,0,2,0.9,2,2   v5.057c0,1.1-0.899,2-2,2h-8.994c-1.101,0-2-0.9-2-2V64.183z M40.473,57.882h-8.957c-1.101,0-2-0.9-2-2v-3.779c0-1.1,0.899-2,2-2   h8.957c1.101,0,2,0.9,2,2v3.779C42.473,56.981,41.573,57.882,40.473,57.882z" fill-opacity="0.15" stroke-opacity="0.15"/>
<linearGradient gradientUnits="userSpaceOnUse" id="SVGID_2_" x1="47.979" x2="47.979" y1="34.0205" y2="22.2705">
<stop offset="0" style="stop-color:#3FA9F5"/>
<stop offset="0.0364" style="stop-color:#3FA9F5"/>
<stop offset="0.2062" style="stop-color:#3DA4ED"/>
<stop offset="0.4684" style="stop-color:#3898D7"/>
<stop offset="0.7886" style="stop-color:#3084B4"/>
<stop offset="1" style="stop-color:#297499"/>
</linearGradient>
<rect fill="url(#SVGID_2_)" height="11.75" width="40.957" x="27.5" y="22.271"/>
<path d="M28.314,20.812c-1.1,0-2,0.9-2,2v48.377c0,1.1,0.9,2,2,2h39.371c1.1,0,2-0.9,2-2V22.812c0-1.1-0.9-2-2-2   H28.314z M29.016,25.513c0-1.1,0.9-2,2-2h34.119c1.1,0,2,0.9,2,2v5.605c0,1.1-0.9,2-2,2H31.016c-1.1,0-2-0.9-2-2V25.513z    M47.637,45.612c-1.1,0-2-0.9-2-2v-5.792c0-1.1,0.9-2,2-2h17.498c1.1,0,2,0.9,2,2v5.792c0,1.1-0.9,2-2,2H47.637z M65.135,48.603   c1.1,0,2,0.9,2,2v4.705c0,1.1-0.9,2-2,2H47.637c-1.1,0-2-0.9-2-2v-4.705c0-1.1,0.9-2,2-2H65.135z M42.973,68.739c0,1.1-0.9,2-2,2   h-9.994c-1.1,0-2-0.9-2-2v-6.057c0-1.1,0.9-2,2-2h9.994c1.1,0,2,0.9,2,2V68.739z M42.973,55.382c0,1.1-0.9,2-2,2h-9.957   c-1.1,0-2-0.9-2-2v-4.779c0-1.1,0.9-2,2-2h9.957c1.1,0,2,0.9,2,2V55.382z M42.973,43.649c0,1.1-0.9,2-2,2H30.94c-1.1,0-2-0.9-2-2   v-5.83c0-1.1,0.9-2,2-2h10.032c1.1,0,2,0.9,2,2V43.649z M67.172,68.739c0,1.1-0.9,2-2,2H47.637c-1.1,0-2-0.9-2-2v-6.092   c0-1.1,0.9-2,2-2h17.535c1.1,0,2,0.9,2,2V68.739z" fill="#FFFFFF"/>
</g>
</svg>
