<?xml version="1.0" encoding="utf-8"?>
<!-- Generator: Adobe Illustrator 15.0.0, SVG Export Plug-In . SVG Version: 6.00 Build 0)  -->
<!DOCTYPE svg PUBLIC "-//W3C//DTD SVG 1.1 Tiny//EN" "http://www.w3.org/Graphics/SVG/1.1/DTD/svg11-tiny.dtd">
<svg version="1.1" baseProfile="tiny" id="Layer_1" xmlns="http://www.w3.org/2000/svg" xmlns:xlink="http://www.w3.org/1999/xlink"
	 x="0px" y="0px" width="128px" height="128px" viewBox="0 0 128 128" xml:space="preserve">
<g>
	<path id="path2400" fill="#7CC040" stroke="#FFFFFF" stroke-width="4.3263" stroke-miterlimit="10" d="M20.066,120.479L16,116.738
		l0.006-47.434c0.007-46.826,0.023-47.475,1.184-50.581c2.484-6.641,6.219-8.899,15.621-9.448c5.638-0.33,7.383-0.095,42.556,5.705
		l36.679,6.049v39.176c0,30.181-0.166,39.715-0.718,41.528c-0.879,2.895-3.768,6.779-6.012,8.084
		c-1.113,0.646-14.594,3.137-40.31,7.449c-21.249,3.563-39.142,6.586-39.755,6.715C24.465,124.146,22.923,123.105,20.066,120.479z"
		/>
	<path id="path2398" fill="#3FA9F5" stroke="#FFFFFF" stroke-width="2.1632" stroke-miterlimit="10" d="M19.202,119.385L16,116.146
		V68.354c0-34.65,0.179-48.39,0.65-49.962c0.828-2.767,3.905-6.37,6.624-7.756c1.162-0.593,3.843-1.221,5.958-1.395
		c2.844-0.232,3.511-0.168,2.56,0.25c-2.77,1.216-5.194,3.631-6.68,6.656c0,0-1.549,3.01-1.552,4.284
		c-0.004,1.276-0.158,50.536-0.158,50.536c-0.085,28.41-0.344,51.654-0.577,51.654C22.594,122.619,20.964,121.164,19.202,119.385z"
		/>
</g>
<g>
	<polygon fill="none" stroke="#FFFFFF" stroke-width="4" stroke-miterlimit="10" points="102,99.5 34,110 34,22.5 102,30.42 	"/>
	<polygon fill="none" stroke="#FFFFFF" stroke-width="4" stroke-miterlimit="10" points="60.683,41.663 34.477,40.03 34.477,22.556 
		60.683,25.607 	"/>
	<polygon fill="none" stroke="#FFFFFF" stroke-width="4" stroke-miterlimit="10" points="60.683,57.717 34.477,57.504 34.477,40.03 
		60.683,41.663 	"/>
	<polygon fill="none" stroke="#FFFFFF" stroke-width="4" stroke-miterlimit="10" points="60.683,73.771 34.477,74.979 
		34.477,57.504 60.683,57.717 	"/>
	<polygon fill="none" stroke="#FFFFFF" stroke-width="4" stroke-miterlimit="10" points="60.683,89.825 34.477,92.452 
		34.477,74.979 60.683,73.771 	"/>
	<polygon fill="none" stroke="#FFFFFF" stroke-width="4" stroke-miterlimit="10" points="60.683,105.88 34.477,109.926 
		34.477,92.452 60.683,89.825 	"/>
	<polygon fill="none" stroke="#FFFFFF" stroke-width="4" stroke-miterlimit="10" points="102,58.052 60.683,57.717 60.683,25.607 
		102,30.42 	"/>
	<polygon fill="none" stroke="#FFFFFF" stroke-width="4" stroke-miterlimit="10" points="102,71.867 60.683,73.771 60.683,57.717 
		102,58.052 	"/>
	<polygon fill="none" stroke="#FFFFFF" stroke-width="4" stroke-miterlimit="10" points="102,85.684 60.683,89.825 60.683,73.771 
		102,71.867 	"/>
	<polygon fill="#3FA9F5" stroke="#FFFFFF" stroke-width="4" stroke-miterlimit="10" points="102,44.236 34,40 34,22.5 102,30.42 	
		"/>
</g>
</svg>
